<svg id="flat" height="512" viewBox="0 0 512 512" width="512" xmlns="http://www.w3.org/2000/svg"><path d="m96 96h392v352a16 16 0 0 1 -16 16h-360a16 16 0 0 1 -16-16z" fill="#5771e5"/><path d="m200 136h256v80h-256z" fill="#b4d0fa"/><path d="m157.67 258.077 22.884-40.046-25.235-12.192-22.841 39.972z" fill="#f5a431"/><path d="m16 376v-104h112l-56 104z" fill="#ffceb6"/><path d="m88 392-40-24 80-136 40 24z" fill="#b36f42"/><path d="m16 272h40l27.02944-27.02944a16.97054 16.97054 0 0 1 12-4.97056 16.97054 16.97054 0 0 1 16.97056 16.97055 16.97054 16.97054 0 0 1 -4.97056 12l-19.02944 19.02945a39.03369 39.03369 0 0 1 -31.37855 38.27568l-8.62145 1.72432h-32z" fill="#ffceb6"/><rect fill="#ffceb6" height="32" rx="16" width="48" x="120" y="280"/><rect fill="#ffceb6" height="32" rx="16" width="48" x="112" y="312"/><rect fill="#ffceb6" height="32" rx="16" width="48" x="104" y="344"/><path d="m48 368v24l18.917 10.8 21.083-10.8z" fill="#9e593c"/><circle cx="184" cy="176" fill="#7ab8f5" r="48"/><path d="m184 232a56 56 0 1 1 56-56 56.06322 56.06322 0 0 1 -56 56zm0-96a40 40 0 1 0 40 40 40.04552 40.04552 0 0 0 -40-40z" fill="#f7d179"/><path d="m96 96v-32a16 16 0 0 1 16-16h360a16 16 0 0 1 16 16v32z" fill="#89a8f5"/><path d="m376 136h80v80h-80z" fill="#a2c1fa"/><path d="m413.65723 197.65674-11.31446-11.31348 10.34375-10.34326-10.34375-10.34326 11.31446-11.31348 16 16a8 8 0 0 1 0 11.31348z" fill="#89a8f5"/><g fill="#3d44d1"><path d="m192 256h72v16h-72z"/><path d="m280 256h40v16h-40z"/><path d="m192 296h120v16h-120z"/><path d="m328 296h24v16h-24z"/><path d="m368 296h80v16h-80z"/><path d="m176 336h96v16h-96z"/><path d="m288 336h96v16h-96z"/><path d="m168 376h48v16h-48z"/><path d="m232 376h24v16h-24z"/><path d="m128 416h112v16h-112z"/><path d="m256 416h56v16h-56z"/><path d="m328 416h16v16h-16z"/></g><rect fill="#ffb089" height="16" rx="8" width="32" x="120" y="304"/><rect fill="#ffb089" height="16" rx="8" width="32" x="112" y="336"/><path d="m47.99992 327.99962a8 8 0 0 1 6.27595-9.41308l.77686-.15537a31.11706 31.11706 0 0 0 24.9469-30.573 7.80256 7.80256 0 0 1 2.34315-5.51486l18.82274-18.82274a9.37276 9.37276 0 0 0 2.79748-5.72643 8.97722 8.97722 0 0 0 -4.73413-8.74892 7.95683 7.95683 0 0 1 -4.19957-7.03193 8.01476 8.01476 0 0 1 11.8823-7.0006 24.98671 24.98671 0 0 1 13.05172 23.32491 25.63478 25.63478 0 0 1 -7.632 16.64511l-16.45732 16.45723a47.17818 47.17818 0 0 1 -37.68359 42.68067l-.777.15537a8 8 0 0 1 -9.41349-6.27636z" fill="#ffb089"/><circle cx="120" cy="72" fill="#f28868" r="8"/><circle cx="144" cy="72" fill="#f7c04a" r="8"/><circle cx="168" cy="72" fill="#90d4b1" r="8"/></svg>