<svg xmlns="http://www.w3.org/2000/svg">
  <defs>
    <g id="github">
      <path d="M 12 0.25 C 5.371094 0.25 0 5.644531 0 12.296875 C 0 17.621094 3.4375 22.136719 8.207031 23.730469 C 8.808594 23.839844 9.027344 23.46875 9.027344 23.148438 C 9.027344 22.863281 9.015625 22.105469 9.011719 21.101562 C 5.671875 21.828125 4.96875 19.484375 4.96875 19.484375 C 4.421875 18.09375 3.636719 17.722656 3.636719 17.722656 C 2.546875 16.976562 3.71875 16.988281 3.71875 16.988281 C 4.921875 17.074219 5.554688 18.230469 5.554688 18.230469 C 6.625 20.074219 8.363281 19.542969 9.046875 19.230469 C 9.15625 18.453125 9.464844 17.921875 9.808594 17.621094 C 7.144531 17.316406 4.34375 16.285156 4.34375 11.667969 C 4.34375 10.351562 4.8125 9.277344 5.578125 8.433594 C 5.457031 8.128906 5.042969 6.902344 5.695312 5.246094 C 5.695312 5.246094 6.703125 4.921875 8.996094 6.480469 C 9.953125 6.214844 10.980469 6.082031 12 6.074219 C 13.019531 6.082031 14.046875 6.214844 15.007812 6.480469 C 17.296875 4.921875 18.304688 5.246094 18.304688 5.246094 C 18.957031 6.90625 18.546875 8.128906 18.421875 8.433594 C 19.191406 9.277344 19.65625 10.355469 19.65625 11.667969 C 19.65625 16.296875 16.851562 17.316406 14.179688 17.613281 C 14.609375 17.984375 14.992188 18.722656 14.992188 19.84375 C 14.992188 21.457031 14.976562 22.753906 14.976562 23.148438 C 14.976562 23.472656 15.195312 23.847656 15.800781 23.726562 C 20.566406 22.132812 24 17.617188 24 12.296875 C 24 5.644531 18.628906 0.25 12 0.25 Z M 12 0.25 "/>
    </g>
    <g id="twitter">
      <path d="M 7.546875 21.75 C 16.605469 21.75 21.558594 14.246094 21.558594 7.742188 C 21.558594 7.527344 21.558594 7.316406 21.542969 7.105469 C 22.507812 6.40625 23.339844 5.542969 24 4.554688 C 23.101562 4.953125 22.148438 5.214844 21.171875 5.328125 C 22.199219 4.714844 22.96875 3.746094 23.335938 2.605469 C 22.371094 3.179688 21.3125 3.585938 20.210938 3.800781 C 19.277344 2.8125 17.980469 2.25 16.621094 2.25 C 13.914062 2.25 11.691406 4.472656 11.691406 7.179688 C 11.691406 7.554688 11.734375 7.925781 11.820312 8.292969 C 7.863281 8.09375 4.167969 6.222656 1.671875 3.148438 C 0.371094 5.386719 1.042969 8.285156 3.195312 9.722656 C 2.410156 9.699219 1.644531 9.484375 0.960938 9.105469 L 0.960938 9.167969 C 0.960938 11.5 2.621094 13.53125 4.910156 13.992188 C 4.183594 14.191406 3.425781 14.21875 2.6875 14.078125 C 3.332031 16.078125 5.1875 17.457031 7.289062 17.496094 C 5.542969 18.867188 3.390625 19.613281 1.171875 19.609375 C 0.78125 19.609375 0.390625 19.585938 0 19.539062 C 2.25 20.984375 4.871094 21.75 7.546875 21.746094 "/>
    </g>
    <g id="linkedin">
      <path  d="M 2.40625 8.710938 L 6.625 8.710938 L 6.625 21.410156 L 2.40625 21.410156 Z M 4.542969 2.589844 C 3.101562 2.589844 2.15625 3.539062 2.15625 4.785156 C 2.15625 6.003906 3.070312 6.976562 4.488281 6.976562 L 4.515625 6.976562 C 5.988281 6.976562 6.902344 6.003906 6.902344 4.785156 C 6.875 3.539062 5.988281 2.589844 4.542969 2.589844 Z M 16.984375 8.414062 C 14.746094 8.414062 13.742188 9.644531 13.183594 10.507812 L 13.183594 8.710938 L 8.960938 8.710938 C 9.015625 9.902344 8.960938 21.410156 8.960938 21.410156 L 13.183594 21.410156 L 13.183594 14.316406 C 13.183594 13.9375 13.210938 13.558594 13.320312 13.289062 C 13.625 12.53125 14.320312 11.746094 15.484375 11.746094 C 17.011719 11.746094 17.625 12.910156 17.625 14.617188 L 17.625 21.410156 L 21.84375 21.410156 L 21.84375 14.128906 C 21.84375 10.226562 19.761719 8.414062 16.984375 8.414062 Z M 16.984375 8.414062 "/>
    </g>
  </defs>
</svg>
