<?xml version="1.0" standalone="no"?>
<!DOCTYPE svg PUBLIC "-//W3C//DTD SVG 20010904//EN"
 "http://www.w3.org/TR/2001/REC-SVG-20010904/DTD/svg10.dtd">
<svg version="1.0" xmlns="http://www.w3.org/2000/svg"
 width="700.000000pt" height="700.000000pt" viewBox="0 0 700.000000 700.000000"
 preserveAspectRatio="xMidYMid meet">
<metadata>
Created by potrace 1.11, written by Peter Selinger 2001-2013
</metadata>
<g transform="translate(0.000000,700.000000) scale(0.100000,-0.100000)"
fill="#000000" stroke="none">
<path d="M3667 6184 c-1 -1 -40 -5 -87 -8 -265 -18 -482 -92 -530 -181 -10
-18 -16 -51 -15 -85 1 -59 -9 -90 -28 -90 -11 0 -524 -189 -572 -211 -11 -5
-99 -38 -195 -73 -130 -47 -184 -63 -210 -60 -98 13 -377 3 -464 -15 -22 -5
-57 -12 -76 -15 -69 -11 -220 -65 -220 -78 0 -4 -6 -8 -14 -8 -24 0 -86 -70
-87 -99 0 -14 -1 -48 -2 -75 l-2 -49 -60 -25 c-33 -13 -242 -93 -465 -176
l-405 -152 -2 -1459 -3 -1460 1399 -699 c870 -434 1406 -697 1418 -694 18 5
880 327 998 373 66 26 1261 474 1365 512 36 13 355 133 710 266 l645 242 2
1460 2 1460 -470 233 c-373 185 -469 237 -469 252 0 28 -63 84 -127 114 -55
27 -230 76 -269 76 -11 0 -242 111 -512 246 -384 191 -492 250 -492 264 0 27
-54 77 -119 109 -98 49 -266 90 -396 97 -149 7 -246 10 -248 8z"/>
</g>
</svg>
